<svg width="70" height="13" viewBox="0 0 70 13" fill="none" xmlns="http://www.w3.org/2000/svg">
<g clip-path="url(#clip0_1042_415)">
<path d="M9.36137 10.7981C9.28354 10.7984 9.20678 10.78 9.13751 10.7445L6.65554 9.44516L4.17358 10.7445C4.09298 10.7869 4.00211 10.8058 3.9113 10.7991C3.82049 10.7924 3.73338 10.7604 3.65987 10.7067C3.58636 10.6529 3.5294 10.5797 3.49547 10.4952C3.46154 10.4107 3.45199 10.3183 3.46792 10.2287L3.95458 7.48878L1.94954 5.54214C1.88698 5.47972 1.84261 5.40143 1.82117 5.3157C1.79974 5.22996 1.80205 5.14 1.82787 5.05548C1.85608 4.96899 1.90797 4.89214 1.97764 4.83364C2.04732 4.77515 2.132 4.73736 2.22207 4.72455L4.99603 4.32063L6.21755 1.82406C6.2574 1.74178 6.31962 1.67239 6.39708 1.62384C6.47455 1.57528 6.56412 1.54953 6.65554 1.54953C6.74696 1.54953 6.83654 1.57528 6.914 1.62384C6.99147 1.67239 7.05369 1.74178 7.09354 1.82406L8.32965 4.31576L11.1036 4.71969C11.1937 4.73249 11.2784 4.77028 11.348 4.82878C11.4177 4.88727 11.4696 4.96412 11.4978 5.05062C11.5236 5.13514 11.5259 5.22509 11.5045 5.31083C11.4831 5.39657 11.4387 5.47485 11.3761 5.53728L9.37111 7.48392L9.85777 10.2238C9.87514 10.3151 9.86604 10.4094 9.83155 10.4956C9.79706 10.5818 9.73861 10.6564 9.6631 10.7105C9.57498 10.7722 9.46887 10.803 9.36137 10.7981Z" fill="#69B99D"/>
</g>
<g clip-path="url(#clip1_1042_415)">
<path d="M23.6368 10.7981C23.5589 10.7984 23.4822 10.78 23.4129 10.7445L20.9309 9.44516L18.449 10.7445C18.3684 10.7869 18.2775 10.8058 18.1867 10.7991C18.0959 10.7924 18.0088 10.7604 17.9353 10.7067C17.8618 10.6529 17.8048 10.5797 17.7709 10.4952C17.7369 10.4107 17.7274 10.3183 17.7433 10.2287L18.23 7.48878L16.2249 5.54214C16.1624 5.47972 16.118 5.40143 16.0966 5.3157C16.0751 5.22996 16.0774 5.14 16.1033 5.05548C16.1315 4.96899 16.1834 4.89214 16.253 4.83364C16.3227 4.77515 16.4074 4.73736 16.4975 4.72455L19.2714 4.32063L20.4929 1.82406C20.5328 1.74178 20.595 1.67239 20.6725 1.62384C20.7499 1.57528 20.8395 1.54953 20.9309 1.54953C21.0224 1.54953 21.1119 1.57528 21.1894 1.62384C21.2669 1.67239 21.3291 1.74178 21.3689 1.82406L22.605 4.31576L25.379 4.71969C25.4691 4.73249 25.5538 4.77028 25.6234 4.82878C25.6931 4.88727 25.745 4.96412 25.7732 5.05062C25.799 5.13514 25.8013 5.22509 25.7799 5.31083C25.7585 5.39657 25.7141 5.47485 25.6515 5.53728L23.6465 7.48392L24.1332 10.2238C24.1505 10.3151 24.1414 10.4094 24.1069 10.4956C24.0724 10.5818 24.014 10.6564 23.9385 10.7105C23.8504 10.7722 23.7443 10.803 23.6368 10.7981Z" fill="#69B99D"/>
</g>
<g clip-path="url(#clip2_1042_415)">
<path d="M37.9122 10.7979C37.8343 10.7982 37.7576 10.7798 37.6883 10.7444L35.2063 9.44497L32.7244 10.7444C32.6438 10.7867 32.5529 10.8057 32.4621 10.799C32.3713 10.7923 32.2842 10.7602 32.2107 10.7065C32.1371 10.6528 32.0802 10.5795 32.0463 10.495C32.0123 10.4105 32.0028 10.3181 32.0187 10.2285L32.5054 7.4886L30.5003 5.54196C30.4378 5.47953 30.3934 5.40125 30.372 5.31551C30.3505 5.22978 30.3528 5.13982 30.3787 5.0553C30.4069 4.96881 30.4587 4.89195 30.5284 4.83346C30.5981 4.77497 30.6828 4.73717 30.7728 4.72437L33.5468 4.32044L34.7683 1.82388C34.8082 1.7416 34.8704 1.67221 34.9479 1.62365C35.0253 1.5751 35.1149 1.54935 35.2063 1.54935C35.2977 1.54935 35.3873 1.5751 35.4648 1.62365C35.5422 1.67221 35.6045 1.7416 35.6443 1.82388L36.8804 4.31558L39.6544 4.7195C39.7445 4.73231 39.8291 4.7701 39.8988 4.82859C39.9685 4.88709 40.0204 4.96394 40.0486 5.05043C40.0744 5.13495 40.0767 5.22491 40.0553 5.31065C40.0339 5.39638 39.9895 5.47467 39.9269 5.53709L37.9219 7.48373L38.4085 10.2236C38.4259 10.3149 38.4168 10.4092 38.3823 10.4954C38.3478 10.5816 38.2894 10.6562 38.2139 10.7103C38.1258 10.772 38.0196 10.8029 37.9122 10.7979Z" fill="#69B99D"/>
</g>
<g clip-path="url(#clip3_1042_415)">
<path d="M52.1875 10.7979C52.1097 10.7982 52.0329 10.7798 51.9637 10.7443L49.4817 9.44494L46.9997 10.7443C46.9192 10.7867 46.8283 10.8056 46.7375 10.7989C46.6467 10.7922 46.5596 10.7602 46.486 10.7065C46.4125 10.6527 46.3556 10.5794 46.3216 10.4949C46.2877 10.4104 46.2782 10.3181 46.2941 10.2285L46.7808 7.48857L44.7757 5.54193C44.7132 5.4795 44.6688 5.40122 44.6473 5.31548C44.6259 5.22975 44.6282 5.13979 44.654 5.05527C44.6823 4.96878 44.7341 4.89192 44.8038 4.83343C44.8735 4.77493 44.9582 4.73714 45.0482 4.72434L47.8222 4.32041L49.0437 1.82385C49.0836 1.74157 49.1458 1.67217 49.2233 1.62362C49.3007 1.57507 49.3903 1.54932 49.4817 1.54932C49.5731 1.54932 49.6627 1.57507 49.7402 1.62362C49.8176 1.67217 49.8799 1.74157 49.9197 1.82385L51.1558 4.31555L53.9298 4.71947C54.0199 4.73228 54.1045 4.77007 54.1742 4.82856C54.2439 4.88706 54.2958 4.96391 54.324 5.0504C54.3498 5.13492 54.3521 5.22488 54.3307 5.31062C54.3093 5.39635 54.2649 5.47464 54.2023 5.53706L52.1973 7.4837L52.6839 10.2236C52.7013 10.3148 52.6922 10.4091 52.6577 10.4954C52.6232 10.5816 52.5648 10.6562 52.4893 10.7103C52.4011 10.772 52.295 10.8028 52.1875 10.7979Z" fill="#69B99D"/>
</g>
<g clip-path="url(#clip4_1042_415)">
<path d="M66.4629 10.798C66.3851 10.7983 66.3083 10.7799 66.2391 10.7444L63.7571 9.44506L61.2751 10.7444C61.1945 10.7868 61.1037 10.8057 61.0129 10.7991C60.9221 10.7924 60.8349 10.7603 60.7614 10.7066C60.6879 10.6528 60.631 10.5796 60.597 10.4951C60.5631 10.4106 60.5536 10.3182 60.5695 10.2286L61.0561 7.48869L59.0511 5.54205C58.9885 5.47962 58.9442 5.40134 58.9227 5.31561C58.9013 5.22987 58.9036 5.13991 58.9294 5.05539C58.9576 4.9689 59.0095 4.89205 59.0792 4.83355C59.1489 4.77506 59.2336 4.73726 59.3236 4.72446L62.0976 4.32053L63.3191 1.82397C63.359 1.74169 63.4212 1.6723 63.4986 1.62374C63.5761 1.57519 63.6657 1.54944 63.7571 1.54944C63.8485 1.54944 63.9381 1.57519 64.0156 1.62374C64.093 1.6723 64.1552 1.74169 64.1951 1.82397L65.4312 4.31567L68.2052 4.7196C68.2952 4.7324 68.3799 4.77019 68.4496 4.82868C68.5193 4.88718 68.5712 4.96403 68.5994 5.05052C68.6252 5.13504 68.6275 5.225 68.6061 5.31074C68.5846 5.39648 68.5403 5.47476 68.4777 5.53718L66.4727 7.48382L66.9593 10.2237C66.9767 10.315 66.9676 10.4093 66.9331 10.4955C66.8986 10.5817 66.8402 10.6563 66.7647 10.7104C66.6765 10.7721 66.5704 10.8029 66.4629 10.798Z" fill="#69B99D"/>
</g>
<defs>
<clipPath id="clip0_1042_415">
<rect width="11.6798" height="11.6798" fill="white" transform="translate(0.815674 0.578369)"/>
</clipPath>
<clipPath id="clip1_1042_415">
<rect width="11.6798" height="11.6798" fill="white" transform="translate(15.0911 0.578186)"/>
</clipPath>
<clipPath id="clip2_1042_415">
<rect width="11.6798" height="11.6798" fill="white" transform="translate(29.3665 0.578186)"/>
</clipPath>
<clipPath id="clip3_1042_415">
<rect width="11.6798" height="11.6798" fill="white" transform="translate(43.6417 0.578186)"/>
</clipPath>
<clipPath id="clip4_1042_415">
<rect width="11.6798" height="11.6798" fill="white" transform="translate(57.9171 0.578186)"/>
</clipPath>
</defs>
</svg>
