<svg width="19" height="19" viewBox="0 0 19 19" fill="none" xmlns="http://www.w3.org/2000/svg">
<path fill-rule="evenodd" clip-rule="evenodd" d="M5.62542 0.73027H13.1234C16.0551 0.73027 18.0182 2.78938 18.0182 5.8521V12.9214C18.0182 15.9746 16.0551 18.0337 13.1234 18.0337H5.62542C2.6937 18.0337 0.721924 15.9746 0.721924 12.9214V5.8521C0.721924 2.78938 2.6937 0.73027 5.62542 0.73027ZM8.87721 11.9689L12.9851 7.8593C13.2791 7.56515 13.2791 7.0893 12.9851 6.78649C12.691 6.49233 12.2067 6.49233 11.9127 6.78649L8.34102 10.3597L6.8276 8.8456C6.53356 8.55144 6.04926 8.55144 5.75523 8.8456C5.46119 9.13976 5.46119 9.61561 5.75523 9.91842L7.81349 11.9689C7.9605 12.116 8.15076 12.1852 8.34102 12.1852C8.53993 12.1852 8.73019 12.116 8.87721 11.9689Z" fill="#69B99D"/>
</svg>
