<svg width="36" height="37" viewBox="0 0 36 37" fill="none" xmlns="http://www.w3.org/2000/svg">
<path fill-rule="evenodd" clip-rule="evenodd" d="M23.5307 4.61922C24.4516 4.61922 25.371 4.74916 26.2452 5.04262C31.6317 6.79459 33.5727 12.7075 31.9513 17.8759C31.0319 20.517 29.5288 22.9274 27.5601 24.8969C24.742 27.6271 21.6496 30.0506 18.3208 32.1384L17.9559 32.3589L17.5765 32.1238C14.236 30.0506 11.126 27.6271 8.28172 24.8823C6.32616 22.9128 4.82154 20.517 3.88754 17.8759C2.23845 12.7075 4.17942 6.79459 9.62434 5.01196C10.0476 4.86596 10.4839 4.76376 10.9217 4.70682H11.0969C11.5069 4.64696 11.9141 4.61922 12.3227 4.61922H12.4833C13.4027 4.64696 14.2929 4.80756 15.1554 5.10102H15.2415C15.2999 5.12875 15.3436 5.15941 15.3728 5.18715C15.6953 5.29081 16.0004 5.40761 16.2922 5.56821L16.8468 5.81641C16.9808 5.8879 17.1312 5.99715 17.2612 6.09157C17.3436 6.15139 17.4177 6.20526 17.4743 6.2398C17.4981 6.25386 17.5223 6.268 17.5468 6.28225C17.6719 6.35532 17.8022 6.43144 17.9121 6.51574C19.5335 5.27621 21.5022 4.60462 23.5307 4.61922ZM27.4126 15.1311C28.0109 15.115 28.5217 14.6347 28.5655 14.02V13.8463C28.6092 11.8009 27.3702 9.94816 25.4862 9.23277C24.8878 9.02691 24.2311 9.34957 24.0122 9.96276C23.8079 10.576 24.129 11.2475 24.7419 11.4651C25.6774 11.8155 26.3034 12.7367 26.3034 13.7573V13.8025C26.2757 14.1368 26.3764 14.4595 26.5807 14.7077C26.785 14.9559 27.0915 15.1004 27.4126 15.1311Z" fill="#69B99D"/>
</svg>
