<svg width="30" height="30" viewBox="0 0 30 30" fill="none" xmlns="http://www.w3.org/2000/svg">
<path fill-rule="evenodd" clip-rule="evenodd" d="M15.6555 0.858623C15.8886 0.64935 16.1969 0.539654 16.5124 0.553725C23.1829 0.753493 28.7578 5.59791 29.7681 12.0727C29.7746 12.1113 29.7746 12.1507 29.7681 12.1894C29.7899 12.4958 29.6864 12.798 29.4805 13.0293C29.2747 13.2605 28.9834 13.4018 28.6712 13.4217L17.464 14.1611C17.0933 14.194 16.7258 14.072 16.4516 13.825C16.1773 13.5781 16.0219 13.2292 16.0234 12.8639L15.2701 1.8509V1.6693C15.2838 1.35956 15.4225 1.0679 15.6555 0.858623ZM14.8868 17.0409L24.6007 16.4183L24.6667 16.4442C25.0839 16.451 25.4811 16.6202 25.7711 16.9146C26.0611 17.209 26.2201 17.6044 26.213 18.0138C25.8303 23.5939 21.7408 28.2564 16.1756 29.4575C10.6105 30.6587 4.90546 28.1103 2.17293 23.2025C1.36945 21.789 0.861713 20.2322 0.679512 18.6235C0.608845 18.1468 0.577905 17.6652 0.586999 17.1836C0.605417 11.2499 4.82826 6.12832 10.737 4.87338C11.4523 4.73944 12.1694 5.09673 12.4815 5.74249C12.5592 5.85967 12.6214 5.98608 12.6665 6.11867C12.7773 7.8292 12.8922 9.52353 13.0066 11.2107C13.0969 12.5431 13.187 13.871 13.2745 15.1989C13.2699 15.5117 13.3191 15.8231 13.4198 16.1199C13.657 16.7039 14.2472 17.0744 14.8868 17.0409Z" fill="#69B99D"/>
</svg>
