<svg width="36" height="36" viewBox="0 0 36 36" fill="none" xmlns="http://www.w3.org/2000/svg">
<path fill-rule="evenodd" clip-rule="evenodd" d="M5.14111 15.6962C5.14111 8.98054 10.7508 3.55251 17.5362 3.55251C24.3408 3.55251 29.9505 8.98054 29.9505 15.6962C29.9505 19.0804 28.7202 22.2221 26.6953 24.8851C24.4615 27.8224 21.7082 30.3817 18.609 32.3906C17.8997 32.8548 17.2596 32.8899 16.4811 32.3906C13.3643 30.3817 10.611 27.8224 8.39625 24.8851C6.36988 22.2221 5.14111 19.0804 5.14111 15.6962ZM13.4511 16.0744C13.4511 18.3241 15.2862 20.0936 17.5362 20.0936C19.7877 20.0936 21.6405 18.3241 21.6405 16.0744C21.6405 13.8422 19.7877 11.9866 17.5362 11.9866C15.2862 11.9866 13.4511 13.8422 13.4511 16.0744Z" fill="#69B99D"/>
</svg>
