<svg width="36" height="37" viewBox="0 0 36 37" fill="none" xmlns="http://www.w3.org/2000/svg">
<path d="M26.8165 21.8754C26.4385 22.2418 26.2648 22.7718 26.3509 23.2916L27.6483 30.4747C27.7578 31.0835 27.5009 31.6996 26.9916 32.0515C26.4925 32.4165 25.8285 32.4603 25.2841 32.1683L18.8205 28.7957C18.5958 28.676 18.3462 28.6117 18.0909 28.6044H17.6954C17.5582 28.6249 17.4239 28.6687 17.3013 28.7358L10.8363 32.1245C10.5167 32.2851 10.1548 32.342 9.80014 32.2851C8.93619 32.1215 8.35974 31.2981 8.50129 30.4294L9.80014 23.2463C9.88624 22.7222 9.71258 22.1893 9.3346 21.817L4.06479 16.7071C3.62406 16.2793 3.47083 15.6369 3.67222 15.0573C3.86778 14.4791 4.36688 14.0572 4.96961 13.9623L12.2227 12.9096C12.7743 12.8527 13.2589 12.5169 13.507 12.0205L16.703 5.4652C16.7789 5.3192 16.8767 5.18488 16.9949 5.071L17.1262 4.9688C17.1948 4.89288 17.2736 4.83011 17.3612 4.77901L17.5202 4.72061L17.7683 4.61841H18.3827C18.9315 4.67535 19.4145 5.00384 19.667 5.4944L22.9053 12.0205C23.1388 12.4979 23.5927 12.8293 24.1166 12.9096L31.3697 13.9623C31.9827 14.0499 32.4949 14.4733 32.6977 15.0573C32.8889 15.6427 32.724 16.2851 32.2745 16.7071L26.8165 21.8754Z" fill="#69B99D"/>
</svg>
