<svg width="36" height="36" viewBox="0 0 36 36" fill="none" xmlns="http://www.w3.org/2000/svg">
<path fill-rule="evenodd" clip-rule="evenodd" d="M29.2386 18.1537C29.2386 19.3414 30.2134 20.3078 31.4116 20.3078C32.0158 20.3078 32.5061 20.7938 32.5061 21.3928V25.3001C32.5061 28.6042 29.7946 31.2921 26.4614 31.2921H9.3648C6.03158 31.2921 3.3186 28.6042 3.3186 25.3001V21.3928C3.3186 20.7938 3.80895 20.3078 4.41314 20.3078C5.61274 20.3078 6.5876 19.3414 6.5876 18.1537C6.5876 16.9964 5.65214 16.1256 4.41314 16.1256C4.12272 16.1256 3.84544 16.0113 3.63967 15.8073C3.43389 15.6033 3.3186 15.327 3.3186 15.0406L3.32152 11.0059C3.32152 7.7018 6.03304 5.0125 9.36626 5.0125H26.4585C29.7917 5.0125 32.5047 7.7018 32.5047 11.0059L32.5061 14.9147C32.5061 15.2012 32.3908 15.4789 32.1865 15.6814C31.9807 15.8854 31.7035 15.9997 31.4116 15.9997C30.2134 15.9997 29.2386 16.9661 29.2386 18.1537ZM21.1988 19.0984L22.9194 17.4377C23.2186 17.1512 23.3222 16.7288 23.1923 16.3382C23.0639 15.9476 22.7282 15.6699 22.3225 15.6135L19.9452 15.2692L18.8813 13.1339C18.6989 12.7665 18.3282 12.5379 17.9152 12.5365H17.9123C17.5008 12.5365 17.1301 12.7651 16.9447 13.1325L15.8809 15.2692L13.5079 15.612C13.0978 15.6699 12.7622 15.9476 12.6323 16.3382C12.5039 16.7288 12.6075 17.1512 12.9052 17.4377L14.6258 19.0984L14.2201 21.4463C14.15 21.8514 14.3149 22.2535 14.6506 22.4951C14.8403 22.6297 15.0607 22.6991 15.284 22.6991C15.4547 22.6991 15.6269 22.6571 15.7845 22.5747L17.9123 21.4666L20.0357 22.5718C20.4035 22.7671 20.8398 22.7367 21.174 22.4937C21.5111 22.2535 21.676 21.8514 21.606 21.4463L21.1988 19.0984Z" fill="#69B99D"/>
</svg>
