<svg width="36" height="37" viewBox="0 0 36 37" fill="none" xmlns="http://www.w3.org/2000/svg">
<path fill-rule="evenodd" clip-rule="evenodd" d="M17.149 32.9618C17.3106 33.0463 17.4913 33.0892 17.672 33.0878C17.8527 33.0863 18.032 33.042 18.1951 32.9561L23.4019 30.1715C24.8785 29.3841 26.0348 28.5036 26.9368 27.4785C28.8982 25.2451 29.9693 22.3947 29.9502 19.4555L29.8885 9.76023C29.8826 8.64354 29.1495 7.6471 28.0652 7.28489L18.3787 4.03358C17.7954 3.83601 17.1563 3.8403 16.5833 4.0436L6.93358 7.41087C5.85518 7.7874 5.13527 8.791 5.14115 9.90913L5.20286 19.5972C5.22196 22.5407 6.32974 25.3783 8.32345 27.5888C9.23436 28.5995 10.4009 29.4671 11.8936 30.2416L17.149 32.9618ZM15.7705 21.567C15.988 21.776 16.2701 21.8791 16.5522 21.8762C16.8342 21.8748 17.1149 21.7689 17.3294 21.557L23.0196 15.9449C23.4471 15.5225 23.4427 14.8439 23.0108 14.4273C22.5774 14.0107 21.8795 14.0135 21.452 14.4359L16.536 19.2835L14.5232 17.3479C14.0898 16.9313 13.3934 16.9356 12.9644 17.3579C12.5368 17.7802 12.5412 18.4589 12.9746 18.8755L15.7705 21.567Z" fill="#69B99D"/>
</svg>
