<svg width="20" height="20" viewBox="0 0 20 20" fill="none" xmlns="http://www.w3.org/2000/svg">
<g clip-path="url(#clip0_1224_99)">
<path d="M2.93008 17.07C1.97498 16.1475 1.21316 15.0441 0.689065 13.824C0.164975 12.604 -0.110887 11.2918 -0.122425 9.96402C-0.133963 8.63622 0.119054 7.31943 0.621863 6.09046C1.12467 4.8615 1.8672 3.74498 2.80613 2.80605C3.74506 1.86713 4.86158 1.1246 6.09054 0.621786C7.3195 0.118977 8.6363 -0.13404 9.96409 -0.122501C11.2919 -0.110963 12.6041 0.164899 13.8241 0.688989C15.0442 1.21308 16.1476 1.9749 17.0701 2.93C18.8917 4.81602 19.8996 7.34205 19.8768 9.96402C19.854 12.586 18.8023 15.0941 16.9483 16.9482C15.0942 18.8023 12.5861 19.854 9.96409 19.8767C7.34212 19.8995 4.8161 18.8916 2.93008 17.07ZM11.4001 10L14.2301 7.17L12.8201 5.76L10.0001 8.59L7.17008 5.76L5.76008 7.17L8.59008 10L5.76008 12.83L7.17008 14.24L10.0001 11.41L12.8301 14.24L14.2401 12.83L11.4101 10H11.4001Z" fill="#FF0000"/>
</g>
<defs>
<clipPath id="clip0_1224_99">
<rect width="20" height="20" fill="white"/>
</clipPath>
</defs>
</svg>
